<svg width="24" height="24" viewBox="0 0 24 24" fill="none" xmlns="http://www.w3.org/2000/svg">
<path d="M11.9902 8.98595V3.31543" stroke="black" stroke-linecap="round"/>
<path d="M11.9902 20.6705V15" stroke="black" stroke-linecap="round"/>
<path d="M20.6702 12.0001L14.9999 11.9482" stroke="black" stroke-linecap="round"/>
<path d="M9.00031 12.0001L3.33002 11.9482" stroke="black" stroke-linecap="round"/>
<path d="M14.9999 5.99998C14.9999 5.99998 12.7904 3.00001 11.9999 3C11.2093 2.99999 8.99994 6 8.99994 6" stroke="black" stroke-linecap="round"/>
<path d="M5.99992 15C5.99992 15 2.99995 12.7905 2.99994 12C2.99993 11.2094 5.99994 9 5.99994 9" stroke="black" stroke-linecap="round"/>
<path d="M17.9999 9C17.9999 9 20.9999 11.2095 20.9999 12C20.9999 12.7906 17.9999 15 17.9999 15" stroke="black" stroke-linecap="round"/>
<path d="M8.99994 18C8.99994 18 11.2094 21 11.9999 21C12.7905 21 14.9999 18 14.9999 18" stroke="black" stroke-linecap="round"/>
</svg>
