<svg width="24" height="24" viewBox="0 0 24 24" fill="none" xmlns="http://www.w3.org/2000/svg">
<path d="M12 22C17.5228 22 22 17.5228 22 12C22 6.47715 17.5228 2 12 2C6.47715 2 2 6.47715 2 12C2 17.5228 6.47715 22 12 22Z" stroke="black" stroke-linecap="round"/>
<path d="M11.115 11.1151C11.6324 10.5977 11.5463 8.4 11.5463 8.4M11.115 11.1151C10.5977 11.6324 8.4 11.5462 8.4 11.5462M11.115 11.1151L7.5 7.5M12.8882 12.8882C13.4055 12.3708 15.6032 12.4569 15.6032 12.4569M12.8882 12.8882C12.3709 13.4055 12.457 15.6032 12.457 15.6032M12.8882 12.8882L16.5 16.5" stroke="black" stroke-linecap="round"/>
</svg>
