<svg width="24" height="24" viewBox="0 0 24 24" fill="none" xmlns="http://www.w3.org/2000/svg">
<path d="M12 22C17.5228 22 22 17.5228 22 12C22 6.47715 17.5228 2 12 2C6.47715 2 2 6.47715 2 12C2 17.5228 6.47715 22 12 22Z" stroke="black" stroke-linecap="round"/>
<path d="M16.0633 16.0634C16.5806 15.5461 16.4946 13.3483 16.4946 13.3483M16.0633 16.0634C15.546 16.5808 13.3483 16.4946 13.3483 16.4946M16.0633 16.0634L13 13M7.93655 7.93661C8.45388 7.41928 10.6516 7.50537 10.6516 7.50537M7.93655 7.93661C7.41923 8.45394 7.50538 10.6516 7.50538 10.6516M7.93655 7.93661L11 11" stroke="black" stroke-linecap="round"/>
</svg>
