<svg width="24" height="24" viewBox="0 0 24 24" fill="none" xmlns="http://www.w3.org/2000/svg">
<path d="M12 22C17.5228 22 22 17.5228 22 12C22 6.47715 17.5228 2 12 2C6.47715 2 2 6.47715 2 12C2 17.5228 6.47715 22 12 22Z" stroke="black" stroke-linecap="round"/>
<path d="M9.3 8.5V15.5M9.3 8.5C8.58465 8.5 7.5 10.25 7.5 10.25M9.3 8.5C10.004 8.5 11.1 10.25 11.1 10.25M14.7 15.5V8.5M14.7 15.5C13.996 15.5 12.9 13.75 12.9 13.75M14.7 15.5C15.404 15.5 16.5 13.75 16.5 13.75" stroke="black" stroke-linecap="round"/>
</svg>
