<svg width="24" height="24" viewBox="0 0 24 24" fill="none" xmlns="http://www.w3.org/2000/svg">
<path d="M12 22C17.5228 22 22 17.5228 22 12C22 6.47715 17.5228 2 12 2C6.47715 2 2 6.47715 2 12C2 17.5228 6.47715 22 12 22Z" stroke="black" stroke-linecap="round"/>
<path d="M7.93668 16.0634C7.41936 15.5461 7.50535 13.3483 7.50535 13.3483M7.93668 16.0634C8.45401 16.5808 10.6517 16.4946 10.6517 16.4946M7.93668 16.0634L11 13M16.0634 7.93661C15.5461 7.41928 13.3484 7.50537 13.3484 7.50537M16.0634 7.93661C16.5808 8.45394 16.4946 10.6516 16.4946 10.6516M16.0634 7.93661L13 11" stroke="black" stroke-linecap="round"/>
</svg>
