<svg width="24" height="24" viewBox="0 0 24 24" fill="none" xmlns="http://www.w3.org/2000/svg">
<path d="M12 22C17.5228 22 22 17.5228 22 12C22 6.47715 17.5228 2 12 2C6.47715 2 2 6.47715 2 12C2 17.5228 6.47715 22 12 22Z" stroke="black" stroke-linecap="round"/>
<path d="M9 16V15.5176C9 14.6212 9 14.173 9.05803 13.798C9.37748 11.7336 10.9593 10.1146 12.9762 9.78761C13.3426 9.72821 14.1242 9.72821 15 9.72821M13.625 8L14.8051 9.23561C15.065 9.50776 15.065 9.94899 14.8051 10.2211L13.625 11.4567" stroke="black" stroke-linecap="round"/>
</svg>
