<svg width="24" height="24" viewBox="0 0 24 24" fill="none" xmlns="http://www.w3.org/2000/svg">
<path d="M12 22C17.5228 22 22 17.5228 22 12C22 6.47715 17.5228 2 12 2C6.47715 2 2 6.47715 2 12C2 17.5228 6.47715 22 12 22Z" stroke="black" stroke-linecap="round"/>
<path d="M15.758 15.758L8.24202 8.24202M15.758 15.758C15.3369 16.179 13.5011 15.9164 12.9395 15.9459M15.758 15.758C16.179 15.3369 15.9164 13.5011 15.9459 12.9395M8.24202 8.24202C7.82099 8.66305 8.08361 10.4989 8.05413 11.0605M8.24202 8.24202C8.66305 7.82099 10.4989 8.08361 11.0605 8.05412" stroke="black" stroke-linecap="round"/>
</svg>
