<svg width="24" height="24" viewBox="0 0 24 24" fill="none" xmlns="http://www.w3.org/2000/svg">
<path d="M8.24202 15.758L15.758 8.24202M8.24202 15.758C8.66305 16.179 10.4989 15.9164 11.0605 15.9459M8.24202 15.758C7.82099 15.3369 8.08361 13.5011 8.05412 12.9395M15.758 8.24202C16.179 8.66305 15.9164 10.4989 15.9459 11.0605M15.758 8.24202C15.3369 7.82099 13.5011 8.08361 12.9395 8.05412" stroke="black" stroke-linecap="round"/>
<path d="M12 22C17.5228 22 22 17.5228 22 12C22 6.47715 17.5228 2 12 2C6.47715 2 2 6.47715 2 12C2 17.5228 6.47715 22 12 22Z" stroke="black" stroke-linecap="round"/>
</svg>
