<svg width="24" height="24" viewBox="0 0 24 24" fill="none" xmlns="http://www.w3.org/2000/svg">
<path d="M12 22C17.5228 22 22 17.5228 22 12C22 6.47715 17.5228 2 12 2C6.47715 2 2 6.47715 2 12C2 17.5228 6.47715 22 12 22Z" stroke="black" stroke-linecap="round"/>
<path d="M16.5 9.6L15.3298 8.68465C14.6572 8.15854 14.4545 8.25535 14.4545 9.10274V14.4C14.4545 15.8615 13.6875 16 12.4091 16M7.5 14.4L8.67019 15.3153C9.34278 15.8415 9.54545 15.7447 9.54545 14.8973V9.6C9.54545 8.13846 10.3125 8 11.5909 8" stroke="black" stroke-linecap="round"/>
</svg>
