<svg width="24" height="24" viewBox="0 0 24 24" fill="none" xmlns="http://www.w3.org/2000/svg">
<path d="M11 15C6.58172 15 3 13.6569 3 12" stroke="black" stroke-linecap="round"/>
<path d="M19 5V11.5M3 5V19C3 20.6569 6.58172 22 11 22C11.1679 22 11.3346 21.9981 11.5 21.9942" stroke="black" stroke-linecap="round"/>
<path d="M11 8C15.4183 8 19 6.65685 19 5C19 3.34315 15.4183 2 11 2C6.58172 2 3 3.34315 3 5C3 6.65685 6.58172 8 11 8Z" stroke="black" stroke-linecap="round"/>
<path d="M17 16.6667V18M17 18V19.3333M17 18H18.3333M17 18H15.6667M21 18C21 20.2091 19.2091 22 17 22C14.7909 22 13 20.2091 13 18C13 15.7909 14.7909 14 17 14C19.2091 14 21 15.7909 21 18Z" stroke="black" stroke-linecap="round"/>
<path d="M6 10.8411C6.60158 11.0219 7.27434 11.1709 8 11.281" stroke="black" stroke-linecap="round"/>
<path d="M6 17.8411C6.60158 18.0219 7.27434 18.1709 8 18.281" stroke="black" stroke-linecap="round"/>
</svg>
