<svg width="24" height="24" viewBox="0 0 24 24" fill="none" xmlns="http://www.w3.org/2000/svg">
<path d="M22 12C22 15.6891 22 17.5337 21.1862 18.8412C20.8851 19.325 20.5111 19.7457 20.0811 20.0845C18.9188 21 17.2792 21 14 21H10C6.7208 21 5.0812 21 3.9189 20.0845C3.4889 19.7457 3.1149 19.325 2.8138 18.8412C2 17.5337 2 15.6891 2 12C2 8.31092 2 6.46632 2.8138 5.15882C3.1149 4.67502 3.4889 4.25432 3.9189 3.91552C5.0812 3.00002 6.7208 3.00002 10 3.00002H14C17.2792 3.00002 18.9188 3.00002 20.0811 3.91552C20.5111 4.25432 20.8851 4.67502 21.1862 5.15882C22 6.46632 22 8.31092 22 12Z" stroke="black"/>
<path d="M22 15L2 15" stroke="black"/>
<path d="M15 18H14M11 18H10M7 18H6" stroke="black" stroke-linecap="round"/>
</svg>
